<svg xmlns="http://www.w3.org/2000/svg" id="svg0.27172610228811855" viewBox="0 0 800 1024"><path d="M0 0 C264 0 528 0 800 0 C800 337.92 800 675.84 800 1024 C536 1024 272 1024 0 1024 C0 686.08 0 348.16 0 0 Z " transform="translate(0,0)" style="fill: #232537;"/><path d="M0 0 C10.23 0 20.46 0 31 0 C33.01851242 6.05553727 34.73638787 11.74896877 36.15625 17.91015625 C36.9670155 20.87920954 38.00920573 23.69048944 39.11230469 26.56079102 C41.07343317 31.94957943 42.68816988 37.45815148 44.375 42.9375 C44.74882812 44.14212891 45.12265625 45.34675781 45.5078125 46.58789062 C47.52959086 53.12751275 49.49823645 59.67877843 51.4140625 66.25 C54.13503178 75.56574133 57.05973275 84.81407382 60 94.0625 C61.02140082 97.28237224 62.04195408 100.50251296 63.0625 103.72265625 C63.31222565 104.510354 63.56195129 105.29805176 63.81924438 106.10961914 C67.92403067 119.06350825 71.94659093 132.04139633 75.91210938 145.03857422 C76.6309156 147.39438778 77.35055574 149.74994544 78.0703125 152.10546875 C78.98298557 155.09276224 79.89331044 158.0807549 80.80175781 161.06933594 C81.52735879 163.45553761 82.26117045 165.83844108 83.00292969 168.21972656 C83.27782227 169.10885742 83.55271484 169.99798828 83.8359375 170.9140625 C84.06587402 171.64834473 84.29581055 172.38262695 84.53271484 173.13916016 C85 175 85 175 85 178 C85.66 178 86.32 178 87 178 C87.10570312 176.81148437 87.21140625 175.62296875 87.3203125 174.3984375 C88.20259261 166.47029937 90.02670216 158.69597707 91.65234375 150.89453125 C93.04710381 144.0889432 94.29575421 137.29463537 95.3359375 130.42578125 C97.31837502 117.43331126 99.86906109 104.5429035 102.35101318 91.63868713 C102.89028526 88.83250482 103.42739533 86.02591042 103.96450043 83.21931267 C105.63728766 74.4784399 107.31785061 65.7390754 109 57 C109.39261981 54.95752754 109.78520179 52.91504782 110.17773438 50.87255859 C115.51354397 23.1258859 115.51354397 23.1258859 118.375 9.375 C118.60896484 8.24433105 118.60896484 8.24433105 118.84765625 7.09082031 C119.87623703 2.24752593 119.87623703 2.24752593 121 0 C132.22 0 143.44 0 155 0 C157.28255968 15.04798601 159.42826175 30.09363821 161.375 45.1875 C163.23845504 59.63152666 165.31552631 74.03365372 167.51544189 88.43008423 C169.20214816 99.47647446 170.79889669 110.5198319 172.06298828 121.62451172 C172.54556007 125.7848052 173.13982691 129.85984888 173.99609375 133.9609375 C175.08641996 139.19633924 175.71155995 144.43950407 176.3125 149.75 C177.63281672 160.93917021 179.43197261 172.01586325 181.37426758 183.11035156 C181.58462646 184.32561523 181.79498535 185.54087891 182.01171875 186.79296875 C182.20209717 187.8708667 182.39247559 188.94876465 182.58862305 190.05932617 C182.96591299 192.75633349 183.07948359 195.28216374 183 198 C183.66 198 184.32 198 185 198 C185.17668213 197.46270264 185.35336426 196.92540527 185.53540039 196.37182617 C187.14847166 191.4958442 188.82492908 186.64719161 190.54931641 181.80957031 C193.30206074 174.07040894 195.86326687 166.3528891 198.03515625 158.4296875 C199.1268851 154.54896712 200.33754852 150.71520476 201.5625 146.875 C203.34227837 141.27499706 204.91126712 135.67233613 206.2265625 129.94140625 C206.8662557 127.50863363 207.59476087 125.17614044 208.40234375 122.796875 C210.38241401 116.95457309 212.01085275 111.02193149 213.66210938 105.08007812 C214.98746225 100.36965511 216.4091576 95.71671991 217.98046875 91.08203125 C219.99756822 85.10940212 221.71417465 79.07986747 223.375 73 C225.55819072 65.09662542 227.80145586 57.21956014 230.1875 49.375 C232.6374289 41.29404526 234.88960088 33.17667784 237 25 C237.78728891 21.95323893 238.57527781 18.90666635 239.36523438 15.8605957 C239.90667265 13.7712034 240.44579575 11.68120957 240.98242188 9.59057617 C241.22927734 8.63642822 241.47613281 7.68228027 241.73046875 6.69921875 C241.95114014 5.84158936 242.17181152 4.98395996 242.39916992 4.1003418 C243 2 243 2 244 0 C253.24 0 262.48 0 272 0 C272.28359375 3.63257813 272.5671875 7.26515625 272.859375 11.0078125 C273.7777947 22.584415 274.82972873 34.14440745 275.94488525 45.70349121 C276.98042079 56.4673435 277.98809487 67.23390514 279 78 C279.06243393 78.66412399 279.12486786 79.32824799 279.18919373 80.01249695 C282.09511427 110.94100123 284.99092754 141.86397409 286.875 172.875 C286.93657288 173.87752808 286.99814575 174.88005615 287.06158447 175.91296387 C287.23199339 178.73072792 287.39531277 181.54877959 287.5546875 184.3671875 C287.62450836 185.55491257 287.62450836 185.55491257 287.69573975 186.76663208 C288.05747733 193.53795759 288 200.18581349 288 207 C277.77 207 267.54 207 257 207 C256.46093694 197.07894583 255.92235419 187.1578667 255.38476944 177.23673248 C255.25041909 174.75773292 255.11598109 172.27873812 254.98153687 169.79974365 C253.92955569 150.39605779 252.89022665 130.99178789 251.87890625 111.5859375 C251.78794614 109.84313898 251.69697332 108.10034112 251.60598755 106.35754395 C251.21246094 98.81607788 250.81986573 91.27456871 250.43155766 83.73283195 C250.27085397 80.61863952 250.10864408 77.50452673 249.94608879 74.39043045 C249.87161945 72.95721541 249.79780484 71.52396616 249.72473335 70.09067917 C249.29733161 61.71147399 248.75736295 53.35617898 248 45 C247.764021 46.09538086 247.52804199 47.19076172 247.28491211 48.31933594 C239.34792886 85.09897093 239.34792886 85.09897093 235.0625 102.25 C234.63988892 103.94914551 234.63988892 103.94914551 234.20874023 105.68261719 C232.2547165 113.3792365 232.2547165 113.3792365 231.02807617 116.36865234 C229.75835082 119.61849794 228.96299048 122.88257046 228.140625 126.2734375 C227.78884135 127.70941528 227.43661423 129.14528448 227.08398438 130.58105469 C226.90472412 131.31449097 226.72546387 132.04792725 226.54077148 132.80358887 C225.68914958 136.26255794 224.80686602 139.71350477 223.921875 143.1640625 C223.74693008 143.84694839 223.57198517 144.52983429 223.39173889 145.2334137 C222.84533305 147.36415935 222.29787732 149.49463225 221.75 151.625 C221.46369217 152.73855362 221.46369217 152.73855362 221.17160034 153.87460327 C218.34356353 164.86498031 215.47780797 175.84494821 212.5625 186.8125 C212.23282227 188.05660645 211.90314453 189.30071289 211.56347656 190.58251953 C211.25506836 191.7373584 210.94666016 192.89219727 210.62890625 194.08203125 C210.2278064 195.58600464 210.2278064 195.58600464 209.81860352 197.12036133 C208.96946103 200.10742831 207.98201894 203.05394317 207 206 C187.53 206 168.06 206 148 206 C147.45730469 200.70839844 146.91460937 195.41679688 146.35546875 189.96484375 C146.0049001 186.56051079 145.65414441 183.15619908 145.30273438 179.75195312 C144.74813547 174.37916907 144.19413405 169.00632937 143.64428711 163.63305664 C140.82253872 136.01155611 140.82253872 136.01155611 137.34085083 108.46694946 C136.8742264 105.08969823 136.4274814 101.70990297 135.979599 98.3301239 C135.55470746 95.12999739 135.12384689 91.93069132 134.69238281 88.73144531 C134.36634569 86.31074505 134.04257759 83.88974672 133.71875 81.46875 C133.50795026 79.90362727 133.29701823 78.33852236 133.0859375 76.7734375 C132.99114105 76.06206635 132.8963446 75.35069519 132.79867554 74.61776733 C132.31468038 71.04906514 131.75555722 67.52166501 131 64 C130.93006836 64.57105469 130.86013672 65.14210938 130.78808594 65.73046875 C130.44727378 68.4876501 130.09856907 71.24378891 129.75 74 C129.64042969 74.89589844 129.53085937 75.79179687 129.41796875 76.71484375 C128.49875488 83.92341571 127.33214637 91.07443778 126.1171875 98.23828125 C123.98164552 110.85827506 122.15164332 123.51273833 120.375 136.1875 C119.25618806 144.12588061 118.13356268 152.06371131 117 160 C116.89836548 160.71416077 116.79673096 161.42832153 116.6920166 162.16412354 C115.88140158 167.81860092 114.98946444 173.34233797 113.50878906 178.859375 C112.32440258 183.84243676 111.65745493 188.94149169 110.875 194 C110.25625 197.96 109.6375 201.92 109 206 C96.79 206 84.58 206 72 206 C65.2913646 183.05646692 65.2913646 183.05646692 62.76757812 174.12036133 C60.2606931 165.24817578 57.60951505 156.42977294 54.875 147.625 C52.03163484 138.46157033 49.36834761 129.29876574 47 120 C42.59450583 103.00458249 37.83023579 86.09924374 32.14257812 69.4855957 C29.40981497 61.42338896 27.19632832 53.22165378 25 45 C23.9018822 48.2943534 23.74451866 50.98316494 23.5703125 54.453125 C23.53549271 55.12102051 23.50067291 55.78891602 23.46479797 56.47705078 C23.38842612 57.95128153 23.31398132 59.42561301 23.24118042 60.90002441 C23.12308631 63.28870815 22.99986495 65.67707802 22.87524414 68.06542969 C22.6878946 71.66072878 22.50236067 75.25611554 22.31787109 78.8515625 C21.7735928 89.41846328 21.20687172 99.98416721 20.63641357 110.54968262 C20.43976794 114.20781036 20.24642106 117.86610286 20.05322266 121.52441406 C19.93017428 123.81315972 19.80697153 126.10189708 19.68359375 128.390625 C19.6294783 129.42993164 19.57536285 130.46923828 19.51960754 131.54003906 C19.28514696 135.83658154 19.01873184 140.1048962 18.50439453 144.37768555 C17.789448 150.42099603 17.54662736 156.49098183 17.24609375 162.56640625 C17.18092056 163.84104233 17.11574738 165.11567841 17.04859924 166.42893982 C16.87735713 169.78739469 16.7084255 173.14594902 16.54064941 176.50457764 C16.36825962 179.94390695 16.19281126 183.3830802 16.01757812 186.82226562 C15.67510983 193.54801879 15.33768056 200.27399794 15 207 C4.44 207 -6.12 207 -17 207 C-16.67 203.04 -16.34 199.08 -16 195 C-15.82559861 192.71715283 -15.65507164 190.43400107 -15.4909668 188.15039062 C-15.40369827 186.94476974 -15.31642975 185.73914886 -15.22651672 184.49699402 C-15.13500839 183.22954849 -15.04350006 181.96210297 -14.94921875 180.65625 C-11.12098384 128.17854762 -11.12098384 128.17854762 -8.875 109.8125 C-6.64938457 91.54797432 -5.63911934 73.22500285 -4.54592896 54.8637085 C-3.96810482 45.25942254 -3.29068623 35.66342244 -2.572052 26.06872559 C-2.441995 24.33208089 -2.31312504 22.59534683 -2.18551636 20.85852051 C-2.00952927 18.46663884 -1.82970427 16.07508043 -1.6484375 13.68359375 C-1.5975145 12.98892502 -1.54659149 12.29425629 -1.49412537 11.57853699 C-1.18916145 7.64445674 -0.65204214 3.91225283 0 0 Z " transform="translate(361,431)" style="fill: #27EFE2;"/><path d="M0 0 C1.28390625 0.17144531 2.5678125 0.34289062 3.890625 0.51953125 C17.52164051 2.7671987 31.01413522 8.57676088 42 17 C42.70769531 17.50789063 43.41539062 18.01578125 44.14453125 18.5390625 C51.8636541 24.24391336 60.40202465 31.00506161 64 40 C51.46 46.27 38.92 52.54 26 59 C21.74289808 55.3510555 17.9125298 51.9125298 14 48 C5.14729819 39.60480216 -4.24245051 35.10666958 -16 32 C-16.62986816 31.8242041 -17.25973633 31.6484082 -17.90869141 31.46728516 C-30.53886988 28.64517897 -44.23011941 30.76188331 -55.4375 36.875 C-59.2848835 40.06551314 -63.71455144 43.94789618 -64.203125 49.171875 C-64.34958981 57.22743946 -62.32163449 61.90363883 -57 68 C-49.43571976 73.76326113 -41.54941679 77.18986129 -32.5078125 79.89453125 C-28.87962796 81.03793462 -25.49097758 82.4942435 -22 84 C-19.94811371 84.67880012 -17.88525932 85.32539237 -15.8125 85.9375 C-14.67425781 86.28296875 -13.53601563 86.6284375 -12.36328125 86.984375 C-10.31976555 87.60146453 -8.27565321 88.21658888 -6.23046875 88.828125 C17.07724987 96.16388766 40.14078979 106.43404201 52 129 C58.18999669 141.37999338 59.42932776 158.03419216 55.09375 171.26171875 C48.26324676 188.3623715 38.71579103 198.78927998 23 208 C21.69289063 208.80630859 21.69289063 208.80630859 20.359375 209.62890625 C-0.86582344 221.96341726 -34.04997056 222.50040044 -57.28515625 217.1015625 C-76.79463497 211.31641739 -92.64918369 203.59789643 -107 189 C-107.75023437 188.24847656 -108.50046875 187.49695313 -109.2734375 186.72265625 C-113.36359934 182.38191137 -116.76496762 177.64146131 -120.0625 172.6875 C-120.46952148 172.08824707 -120.87654297 171.48899414 -121.29589844 170.87158203 C-124.05604971 166.57411601 -124.05604971 166.57411601 -123.80004883 163.9519043 C-122.36555461 160.45212363 -118.76191013 158.9755922 -115.625 157.125 C-114.90344727 156.68736328 -114.18189453 156.24972656 -113.43847656 155.79882812 C-107.72244124 152.35751562 -101.92620504 149.06670751 -96 146 C-94.98679688 145.39671875 -94.98679688 145.39671875 -93.953125 144.78125 C-92 144 -92 144 -89.94140625 144.078125 C-87.17829717 145.39018484 -86.43433756 147.1008655 -84.9375 149.75 C-74.67419213 166.61428153 -61.11146114 179.40842617 -41.640625 184.421875 C-26.77507563 187.67646273 -10.43353629 186.71328288 3 179 C9.73213701 174.64036923 15.15998069 170.12675197 17 162 C17.98089706 153.15706442 15.76713697 147.38920039 10.4375 140.4375 C-0.81381719 128.24857304 -18.93943251 123.93646996 -34.19798279 119.00546265 C-86.10830251 102.21830349 -86.10830251 102.21830349 -98.8125 77.9375 C-99.55948806 76.29967821 -100.28992214 74.65415865 -101 73 C-101.3196875 72.34128906 -101.639375 71.68257813 -101.96875 71.00390625 C-106.43149449 60.40488809 -105.05482014 46.41603004 -101.25 35.88671875 C-94.37350097 20.00630381 -82.52113663 10.49947962 -67.01171875 3.6875 C-61.13559126 1.42681163 -55.2176187 -0.0488345 -49 -1 C-48.29230469 -1.11214844 -47.58460938 -1.22429687 -46.85546875 -1.33984375 C-31.35975451 -3.32090704 -15.40514562 -2.14883096 0 0 Z " transform="translate(265,424)" style="fill: #D8F7F8;"/><path d="M0 0 C0.99 0.495 0.99 0.495 2 1 C-0.62838933 12.4491014 -3.46061243 23.83193661 -6.46435547 35.18823242 C-7.13437506 37.72296656 -7.79980306 40.25887737 -8.46484375 42.79492188 C-8.89556507 44.4297582 -9.32654485 46.06452646 -9.7578125 47.69921875 C-9.9536795 48.44612473 -10.14954651 49.1930307 -10.35134888 49.96257019 C-10.53849457 50.66803482 -10.72564026 51.37349945 -10.91845703 52.1003418 C-11.07959991 52.71080856 -11.2407428 53.32127533 -11.4067688 53.95024109 C-12.19048251 56.65816366 -13.10853761 59.32561284 -14 62 C-33.47 62 -52.94 62 -73 62 C-75.25 40.625 -75.25 40.625 -75 33 C-71.05313064 40.89373873 -71.19243729 50.25545986 -70 59 C-51.85 59.33 -33.7 59.66 -15 60 C-14.67 57.69 -14.34 55.38 -14 53 C-13.34610581 50.99578773 -12.67890508 48.99587884 -12 47 C-11.42208075 44.37550431 -10.87608468 41.76336423 -10.375 39.125 C-10.17390625 38.09246094 -10.17390625 38.09246094 -9.96875 37.0390625 C-9.64227777 35.36006245 -9.32063447 33.68012464 -9 32 C-8.34 32 -7.68 32 -7 32 C-7.061875 31.01 -7.12375 30.02 -7.1875 29 C-7.1949335 25.29068147 -6.19405632 22.56605898 -4.79296875 19.171875 C-3.63007016 15.98679315 -3.08466894 12.7376538 -2.47265625 9.41015625 C-1.84351991 6.20208086 -0.95141392 3.12607429 0 0 Z " transform="translate(582,575)" style="fill: #48E2E5;"/><path d="M0 0 C2.60895459 2.60895459 3.10973264 4.98266538 4.1875 8.5 C4.55230469 9.6653125 4.91710937 10.830625 5.29296875 12.03125 C6 15 6 15 5 17 C3.68 15.68 2.36 14.36 1 13 C0.9498877 13.87696533 0.89977539 14.75393066 0.84814453 15.6574707 C0.73705023 17.60162106 0.62594796 19.54577096 0.51472473 21.48991394 C0.29343789 25.35910719 0.0729522 29.22834375 -0.14624023 33.09765625 C-0.59630478 41.02835488 -1.05521981 48.95824323 -1.54296875 56.88671875 C-1.71783816 59.75771238 -1.89093236 62.62880719 -2.0625 65.5 C-2.10484772 66.20806793 -2.14719543 66.91613586 -2.19082642 67.6456604 C-2.96533053 80.78091469 -3.38632062 93.91751763 -3.65844727 107.07226562 C-3.6746814 107.78431152 -3.69091553 108.49635742 -3.7076416 109.22998047 C-3.75103374 111.15388939 -3.7889201 113.07792026 -3.82641602 115.00195312 C-4 118 -4 118 -5 121 C-5.14715199 122.62567079 -5.24721867 124.25586857 -5.31640625 125.88671875 C-5.35830078 126.82451172 -5.40019531 127.76230469 -5.44335938 128.72851562 C-5.50233398 130.19321289 -5.50233398 130.19321289 -5.5625 131.6875 C-5.60568359 132.67556641 -5.64886719 133.66363281 -5.69335938 134.68164062 C-5.79941654 137.12095546 -5.90147714 139.56037113 -6 142 C-6.66 141.67 -7.32 141.34 -8 141 C-8.28759732 124.06371319 -7.12329914 107.17375498 -5.8737793 90.29370117 C-5.05042862 79.02376095 -4.33252536 67.74786038 -3.63641357 56.46939087 C-3.50633025 54.36400885 -3.37538435 52.2586799 -3.24346924 50.15341187 C-2.46359841 37.68611215 -1.78846767 25.22445507 -1.370224 12.73907471 C-1.3357869 11.79747498 -1.30134979 10.85587524 -1.26586914 9.88574219 C-1.23836075 9.06080261 -1.21085236 8.23586304 -1.18251038 7.38592529 C-0.98938536 4.86123674 -0.54421524 2.47082892 0 0 Z " transform="translate(385,474)" style="fill: #0B4145;"/><path d="M0 0 C0.33 0 0.66 0 1 0 C1 2.31 1 4.62 1 7 C1.66 7 2.32 7 3 7 C3.02505615 7.68102783 3.0501123 8.36205566 3.07592773 9.0637207 C3.19190952 12.14683755 3.31462616 15.22965046 3.4375 18.3125 C3.47681641 19.38435547 3.51613281 20.45621094 3.55664062 21.56054688 C3.59853516 22.58857422 3.64042969 23.61660156 3.68359375 24.67578125 C3.72025146 25.62364502 3.75690918 26.57150879 3.79467773 27.5480957 C3.91430187 30.136171 3.91430187 30.136171 5 33 C5.22325814 35.05893621 5.40705759 37.12233653 5.5625 39.1875 C5.68818359 40.81751953 5.68818359 40.81751953 5.81640625 42.48046875 C5.90728516 43.72763672 5.90728516 43.72763672 6 45 C9.4374823 45.02901394 12.87493312 45.04680335 16.3125 45.0625 C17.77719727 45.07506836 17.77719727 45.07506836 19.27148438 45.08789062 C20.20927734 45.09111328 21.14707031 45.09433594 22.11328125 45.09765625 C22.97735596 45.10289307 23.84143066 45.10812988 24.73168945 45.11352539 C27.16728714 45.09335523 27.16728714 45.09335523 30 44 C30.33 35.09 30.66 26.18 31 17 C31.33 17 31.66 17 32 17 C32.17123018 19.89562459 32.33702599 22.79140771 32.5 25.6875 C32.54769531 26.48478516 32.59539063 27.28207031 32.64453125 28.10351562 C33.03184841 35.10289006 33 41.95490112 33 49 C22.77 49 12.54 49 2 49 C1.71303702 43.46827621 1.42750182 37.93651526 1.14550781 32.40454102 C1.04932541 30.52591798 0.95233438 28.64733615 0.85449219 26.76879883 C0.71332271 24.05560795 0.57514283 21.34227806 0.4375 18.62890625 C0.39375244 17.80040665 0.35000488 16.97190704 0.30493164 16.11830139 C0.03570949 10.73842885 -0.03778483 5.38670036 0 0 Z " transform="translate(616,589)" style="fill: #38DEDD;"/><path d="M0 0 C0.99 0.495 0.99 0.495 2 1 C2.46674095 3.78894017 2.80573217 6.50227913 3.0703125 9.3125 C3.15626678 10.15538574 3.24222107 10.99827148 3.33078003 11.86669922 C3.51157606 13.65857499 3.68779914 15.45091702 3.85986328 17.24365234 C4.12132301 19.96177422 4.39726276 22.67811022 4.67578125 25.39453125 C4.84982875 27.13793416 5.02303153 28.88142164 5.1953125 30.625 C5.27653351 31.42848877 5.35775452 32.23197754 5.44143677 33.05981445 C5.51506439 33.83671631 5.58869202 34.61361816 5.66455078 35.4140625 C5.72957794 36.0838916 5.7946051 36.7537207 5.86160278 37.44384766 C6.06987347 41.29054062 6 45.14767299 6 49 C25.47 49 44.94 49 65 49 C65.33 48.01 65.66 47.02 66 46 C66 47.32 66 48.64 66 50 C58.06395981 50.15360551 50.12784515 50.30178712 42.19157505 50.4429636 C38.50681052 50.50868325 34.82210084 50.57630074 31.13745117 50.64819336 C27.58436412 50.71745021 24.03121957 50.78180302 20.47797966 50.84269524 C19.11951384 50.86684925 17.76107875 50.89279758 16.40268135 50.92053413 C14.50625504 50.95895576 12.60969346 50.99051816 10.71313477 51.02172852 C9.09097801 51.05170677 9.09097801 51.05170677 7.43605042 51.08229065 C5 51 5 51 4 50 C3.78841382 47.01722267 3.62358295 44.04908798 3.5 41.0625 C3.43119577 39.40737601 3.35846293 37.75240929 3.28125 36.09765625 C3.25095703 35.36039307 3.22066406 34.62312988 3.18945312 33.86352539 C3.10192135 31.90846298 3.10192135 31.90846298 2 30 C1.73464575 26.37349198 1.55555884 22.75316054 1.39453125 19.12109375 C1.2895814 14.92637012 1.2895814 14.92637012 0 11 C-0.07033769 9.12620395 -0.0843022 7.24998898 -0.0625 5.375 C-0.05347656 4.37210938 -0.04445313 3.36921875 -0.03515625 2.3359375 C-0.02355469 1.56507813 -0.01195312 0.79421875 0 0 Z " transform="translate(503,588)" style="fill: #0C4E59;"/><path d="M0 0 C1 4 1 4 -2 22 C-14.21 22 -26.42 22 -39 22 C-44 5 -44 5 -43 1 C-42.81824219 1.72445312 -42.63648438 2.44890625 -42.44921875 3.1953125 C-40.54758944 11.74013164 -40.54758944 11.74013164 -36 19 C-33.62661361 19.15971977 -31.27881728 19.2592433 -28.90234375 19.31640625 C-28.19348526 19.33718735 -27.48462677 19.35796844 -26.75428772 19.37937927 C-24.48212695 19.44494598 -22.20984736 19.5037923 -19.9375 19.5625 C-18.40037817 19.60567849 -16.8632685 19.64929255 -15.32617188 19.69335938 C-11.5509041 19.80063449 -7.7755164 19.90188137 -4 20 C-3.94593994 19.26612061 -3.89187988 18.53224121 -3.83618164 17.77612305 C-3.71811157 16.31493042 -3.71811157 16.31493042 -3.59765625 14.82421875 C-3.48562866 13.38308716 -3.48562866 13.38308716 -3.37133789 11.9128418 C-2.83688481 7.72049487 -1.53884803 3.91970724 0 0 Z " transform="translate(472,615)" style="fill: #55DEE6;"/><path d="M0 0 C0.33 0 0.66 0 1 0 C1.14239717 10.29795238 0.76597946 20.51795241 0.20043945 30.79711914 C0.06175408 33.32610217 -0.07010159 35.85537763 -0.20117188 38.38476562 C-0.28866156 40.02345896 -0.3765385 41.66213167 -0.46484375 43.30078125 C-0.50343002 44.04161453 -0.5420163 44.78244781 -0.58177185 45.54573059 C-0.78527883 49.18611327 -1.07264413 52.79325902 -1.5 56.41455078 C-2.06590487 61.29158898 -2.31824102 66.16301236 -2.53515625 71.06640625 C-2.57813339 71.98590561 -2.62111053 72.90540497 -2.66539001 73.85276794 C-2.80046549 76.75589445 -2.93155057 79.65918476 -3.0625 82.5625 C-3.15403185 84.54493413 -3.24582624 86.52735616 -3.33789062 88.50976562 C-3.5616273 93.33970922 -3.78178833 98.16980377 -4 103 C-4.33 103 -4.66 103 -5 103 C-5.43446721 55.16033299 -5.43446721 55.16033299 -2.47265625 34.0546875 C-1.67658118 27.95715752 -1.55317395 21.79765132 -1.34179688 15.6574707 C-1.15195655 10.37826311 -0.73869487 5.23191325 0 0 Z " transform="translate(381,519)" style="fill: #3CCCC4;"/><path d="M0 0 C0.66 0 1.32 0 2 0 C2.79023574 2.82861202 3.16175006 5.43921358 3.28125 8.37109375 C3.31863281 9.19287109 3.35601563 10.01464844 3.39453125 10.86132812 C3.44673828 12.1365332 3.44673828 12.1365332 3.5 13.4375 C3.56935476 15.12384818 3.64217203 16.81005814 3.71875 18.49609375 C3.74904297 19.24044678 3.77933594 19.9847998 3.81054688 20.75170898 C3.95712582 23.02816484 3.95712582 23.02816484 4.48413086 25.3371582 C5.11574193 28.5974431 5.32655092 31.79479683 5.53515625 35.109375 C5.57822403 35.78978348 5.62129181 36.47019196 5.66566467 37.17121887 C5.80238434 39.36390008 5.93300173 41.55688122 6.0625 43.75 C6.10735535 44.49144257 6.15221069 45.23288513 6.19842529 45.99679565 C6.83952164 56.67164371 7.29394986 67.30349117 7 78 C6.67 78 6.34 78 6 78 C5.93958023 77.25355225 5.87916046 76.50710449 5.81690979 75.73803711 C5.2450268 68.67663634 4.67146533 61.61537433 4.09605503 54.55426025 C3.80034528 50.92475612 3.50526698 47.29520303 3.21166992 43.66552734 C2.92789681 40.15760006 2.6424152 36.6498155 2.35578728 33.14212036 C2.19456579 31.16377075 2.03507835 29.18528007 1.87562561 27.20678711 C1.37636692 21.11424774 0.79535879 15.060562 0 9 C-0.05915294 7.3342531 -0.08854052 5.66659344 -0.0625 4 C-0.05347656 3.236875 -0.04445313 2.47375 -0.03515625 1.6875 C-0.02355469 1.130625 -0.01195312 0.57375 0 0 Z " transform="translate(640,512)" style="fill: #09373D;"/><path d="M0 0 C0.33 0 0.66 0 1 0 C1.43811358 6.68064513 1.86376193 13.36201046 2.28173828 20.04394531 C2.42454335 22.30518533 2.56994711 24.56626311 2.71826172 26.82714844 C3.74883006 42.57311092 4.21071198 58.22037438 4 74 C3.67 74 3.34 74 3 74 C2.08212684 70.04747836 1.82314219 66.29097505 1.71875 62.23828125 C1.68136719 60.95501953 1.64398437 59.67175781 1.60546875 58.34960938 C1.55169874 56.32188794 1.49953096 54.29413065 1.44775391 52.26635742 C1.3960634 50.29856157 1.33874261 48.33091613 1.28125 46.36328125 C1.25095703 45.19063721 1.22066406 44.01799316 1.18945312 42.80981445 C1.18483565 40.0479797 1.18483565 40.0479797 0 38 C-0.08691001 35.15570643 -0.11553802 32.33620824 -0.09765625 29.4921875 C-0.0962413 28.65156769 -0.09482635 27.81094788 -0.09336853 26.94485474 C-0.08776237 24.25486725 -0.07520886 21.56496241 -0.0625 18.875 C-0.05748579 17.05338662 -0.05292275 15.23177193 -0.04882812 13.41015625 C-0.03779094 8.94007223 -0.0205222 4.47005014 0 0 Z " transform="translate(613,548)" style="fill: #0D3F4B;"/><path d="M0 0 C10.23 0 20.46 0 31 0 C36.44329897 16.32989691 36.44329897 16.32989691 35 21 C32.76419703 16.23676758 31.58694567 12.28251099 31 7 C30.67 5.35 30.34 3.7 30 2 C21.09 2 12.18 2 3 2 C3 3.32 3 4.64 3 6 C2.34 6 1.68 6 1 6 C1 7.98 1 9.96 1 12 C0.67 12 0.34 12 0 12 C0 8.04 0 4.08 0 0 Z " transform="translate(361,431)" style="fill: #45E9E1;"/><path d="M0 0 C2 1 2 1 2.8515625 3.1875 C4.34864538 8.63143774 5.3196973 13.46948893 5.0078125 19.125 C4.89898196 21.2305756 4.89898196 21.2305756 6 24 C6.30351197 26.79905487 6.50744074 29.59885555 6.71875 32.40625 C6.91931261 35.11146303 6.91931261 35.11146303 8 38 C8.07029121 40.57265818 8.09370832 43.11641431 8.0625 45.6875 C8.05798828 46.38939453 8.05347656 47.09128906 8.04882812 47.81445312 C8.03706927 49.54300538 8.01913454 51.27151365 8 53 C7.67 53 7.34 53 7 53 C4.87424519 41.40497375 3.26997303 29.75756146 1.8125 18.0625 C1.72214478 17.3418335 1.63178955 16.62116699 1.53869629 15.87866211 C0 3.56488962 0 3.56488962 0 0 Z " transform="translate(519,455)" style="fill: #0C3D3F;"/><path d="M0 0 C-1 2 -1 2 -2.8203125 2.81640625 C-6.42002892 3.98173818 -9.73134268 4.96641783 -13.5 5.4375 C-18.08726196 6.17473853 -21.82964618 8.02084903 -26 10 C-28.98511175 11.26038052 -31.83636086 12.29696908 -35 13 C-34.67 12.01 -34.34 11.02 -34 10 C-33.01 10 -32.02 10 -31 10 C-31 9.01 -31 8.02 -31 7 C-20.60129608 2.72968585 -11.3019172 -0.41858953 0 0 Z " transform="translate(224,423)" style="fill: #D8E7EA;"/><path d="M0 0 C0.33 0 0.66 0 1 0 C1.02472359 4.50235595 1.04287119 9.00467236 1.05493164 13.50708008 C1.0599596 15.0386626 1.06678284 16.57024033 1.07543945 18.10180664 C1.08757229 20.30356022 1.09324367 22.50525033 1.09765625 24.70703125 C1.10281754 25.39150833 1.10797882 26.07598541 1.11329651 26.78120422 C1.1136536 29.80906242 0.96616619 32.10150142 0 35 C-0.14715199 36.62567079 -0.24721867 38.25586857 -0.31640625 39.88671875 C-0.35830078 40.82451172 -0.40019531 41.76230469 -0.44335938 42.72851562 C-0.50233398 44.19321289 -0.50233398 44.19321289 -0.5625 45.6875 C-0.60568359 46.67556641 -0.64886719 47.66363281 -0.69335938 48.68164062 C-0.79941654 51.12095546 -0.90147714 53.56037113 -1 56 C-1.66 55.67 -2.32 55.34 -3 55 C-3.31263801 36.58909515 -2.0428559 18.2865353 0 0 Z " transform="translate(380,560)" style="fill: #0C3C41;"/><path d="M0 0 C0.66 0 1.32 0 2 0 C0.70424406 7.20103643 -1.090655 14.13721022 -3.25 21.125 C-3.55574951 22.12184814 -3.86149902 23.11869629 -4.17651367 24.14575195 C-10.50252838 44.49069924 -10.50252838 44.49069924 -15 53 C-15.66 53 -16.32 53 -17 53 C-17.33 50.03 -17.66 47.06 -18 44 C-17.01 45.32 -16.02 46.64 -15 48 C-14.01 44.7 -13.02 41.4 -12 38 C-11.34 38 -10.68 38 -10 38 C-9.896875 36.88625 -9.79375 35.7725 -9.6875 34.625 C-8.8738731 28.23858615 -6.77042704 22.2833956 -4.7265625 16.203125 C-4.50387695 15.53998291 -4.28119141 14.87684082 -4.05175781 14.19360352 C-3.40169339 12.26662682 -2.74397727 10.34223656 -2.0859375 8.41796875 C-1.19168113 5.6033129 -0.49807319 2.90542696 0 0 Z " transform="translate(561,576)" style="fill: #0A3E41;"/><path d="M0 0 C1.96017306 2.9402596 2.69738007 5.0063943 3.62109375 8.375 C3.91693359 9.44363281 4.21277344 10.51226563 4.51757812 11.61328125 C4.82115234 12.73089844 5.12472656 13.84851563 5.4375 15 C5.73720703 16.08667969 6.03691406 17.17335938 6.34570312 18.29296875 C6.94320659 20.46264511 7.5374765 22.6332147 8.12841797 24.8046875 C8.70992585 26.93655731 9.29750518 29.06678021 9.89111328 31.1953125 C10.16552246 32.18273437 10.43993164 33.17015625 10.72265625 34.1875 C10.96894775 35.06792969 11.21523926 35.94835937 11.46899414 36.85546875 C12 39 12 39 12 41 C24.21 41 36.42 41 49 41 C49 41.33 49 41.66 49 42 C36.13 42 23.26 42 10 42 C7.6875 31.875 7.6875 31.875 6.97924805 28.71826172 C5.81687833 23.73831926 4.39363453 19.5479056 2 15 C1.26953125 12.1484375 1.26953125 12.1484375 0.8125 9.375 C0.57466797 7.99441406 0.57466797 7.99441406 0.33203125 6.5859375 C0 4 0 4 0 0 Z " transform="translate(421,596)" style="fill: #0B4E5B;"/><path d="M0 0 C0.33 0 0.66 0 1 0 C0.99214478 1.52923096 0.99214478 1.52923096 0.98413086 3.08935547 C0.96605624 6.86506271 0.95455895 10.64076612 0.94506836 14.41650391 C0.94003379 16.05192711 0.93320573 17.6873458 0.92456055 19.32275391 C0.91245665 21.67090975 0.906763 24.01900619 0.90234375 26.3671875 C0.89718246 27.10057343 0.89202118 27.83395935 0.88670349 28.58956909 C0.816844 32.42122656 0.816844 32.42122656 2 36 C14.87 36.495 14.87 36.495 28 37 C28 33.04 28 29.08 28 25 C28.33 25 28.66 25 29 25 C29 29.29 29 33.58 29 38 C18.44 38 7.88 38 -3 38 C-2.67 34.04 -2.34 30.08 -2 26 C-1.81881015 23.71376219 -1.6398478 21.42734463 -1.46484375 19.140625 C-1.37783203 18.00625 -1.29082031 16.871875 -1.20117188 15.703125 C-1.11416016 14.56359375 -1.02714844 13.4240625 -0.9375 12.25 C-0.84662109 11.0640625 -0.75574219 9.878125 -0.66210938 8.65625 C-0.44105129 5.77086031 -0.22035346 2.88544357 0 0 Z " transform="translate(347,600)" style="fill: #32B3B9;"/><path d="M0 0 C0.33 0 0.66 0 1 0 C1 2.31 1 4.62 1 7 C1.66 7 2.32 7 3 7 C3 20.53 3 34.06 3 48 C12.9 48 22.8 48 33 48 C33 48.33 33 48.66 33 49 C22.77 49 12.54 49 2 49 C1.71303702 43.46827621 1.42750182 37.93651526 1.14550781 32.40454102 C1.04932541 30.52591798 0.95233438 28.64733615 0.85449219 26.76879883 C0.71332271 24.05560795 0.57514283 21.34227806 0.4375 18.62890625 C0.39375244 17.80040665 0.35000488 16.97190704 0.30493164 16.11830139 C0.03570949 10.73842885 -0.03778483 5.38670036 0 0 Z " transform="translate(616,589)" style="fill: #30AFB3;"/><path d="M0 0 C0.66 0 1.32 0 2 0 C1.3485527 9.23036599 -0.59242044 18.10895464 -2.5625 27.125 C-2.89568499 28.66916245 -3.22837122 30.21343261 -3.56054688 31.7578125 C-4.36795531 35.50647436 -5.18209148 39.25361573 -6 43 C-6.66 43 -7.32 43 -8 43 C-8.86500888 40.39898714 -9.71726928 37.79493589 -10.5625 35.1875 C-10.80935547 34.44951172 -11.05621094 33.71152344 -11.31054688 32.95117188 C-13.11328125 27.33984375 -13.11328125 27.33984375 -12 24 C-11.51891725 25.41601714 -11.04021859 26.83284437 -10.5625 28.25 C-10.16224609 29.43335938 -10.16224609 29.43335938 -9.75390625 30.640625 C-9.08045292 32.74821988 -8.50849405 34.84753973 -8 37 C-7.67 35.68 -7.34 34.36 -7 33 C-6.34 33 -5.68 33 -5 33 C-5.04125 31.7625 -5.0825 30.525 -5.125 29.25 C-5.125 22.43494988 -4.83865489 14.75798234 -1 9 C-0.54605448 6.72087062 -0.54605448 6.72087062 -0.375 4.3125 C-0.30023438 3.50425781 -0.22546875 2.69601562 -0.1484375 1.86328125 C-0.09945313 1.24839844 -0.05046875 0.63351562 0 0 Z " transform="translate(454,566)" style="fill: #0E4B4F;"/><path d="M0 0 C0.33 0 0.66 0 1 0 C1.57419774 6.97391771 2.14331905 13.94823663 2.70898438 20.92285156 C2.90183725 23.29338873 3.09583373 25.66383315 3.29101562 28.03417969 C3.57205181 31.44962963 3.84891577 34.86539664 4.125 38.28125 C4.21249512 39.33364868 4.29999023 40.38604736 4.39013672 41.47033691 C4.83296765 47.00238227 5.09288135 52.45033904 5 58 C4.67 58 4.34 58 4 58 C-0.549361 39.05863532 -0.26351422 19.38293474 0 0 Z " transform="translate(642,540)" style="fill: #3BC3BB;"/><path d="M0 0 C2.96777344 2.69873047 2.96777344 2.69873047 3.2578125 5.41015625 C3.21398437 6.28542969 3.17015625 7.16070312 3.125 8.0625 C2.87190234 11.67235887 2.87190234 11.67235887 4 15 C4.01663479 17.77408431 3.97265804 20.51827713 3.87890625 23.2890625 C3.85529526 24.10748627 3.83168427 24.92591003 3.80735779 25.76913452 C3.73067056 28.3879306 3.64666817 31.00643471 3.5625 33.625 C3.50928437 35.39842312 3.45654393 37.17186058 3.40429688 38.9453125 C3.2750486 43.29706054 3.13923848 47.64856061 3 52 C2.67 52 2.34 52 2 52 C1.70911482 47.16635485 1.42463106 42.33238551 1.14550781 37.49804688 C1.05016549 35.86123042 0.95321921 34.22450642 0.85449219 32.58789062 C0.19956253 21.70803873 -0.13532274 10.90099846 0 0 Z " transform="translate(610,472)" style="fill: #3CD6D4;"/><path d="M0 0 C-0.74108308 10.96640082 -2.48224538 21.81880931 -4.0625 32.6875 C-4.34726671 34.66076957 -4.63177414 36.63407658 -4.91601562 38.60742188 C-5.60768646 43.40538504 -6.30287151 48.2028269 -7 53 C-7.33 53 -7.66 53 -8 53 C-7.67 46.07 -7.34 39.14 -7 32 C-6.34 32 -5.68 32 -5 32 C-5.01160156 30.92878906 -5.02320313 29.85757813 -5.03515625 28.75390625 C-5.04453299 27.35677257 -5.05363331 25.95963701 -5.0625 24.5625 C-5.07506836 23.50192383 -5.07506836 23.50192383 -5.08789062 22.41992188 C-5.09653588 20.61306441 -5.05220011 18.80612397 -5 17 C-4.67 16.67 -4.34 16.34 -4 16 C-3.62607155 13.49935351 -3.29475984 11.01006422 -3 8.5 C-2.00183486 0 -2.00183486 0 0 0 Z " transform="translate(486,531)" style="fill: #3ED9D2;"/><path d="M0 0 C0.33 0 0.66 0 1 0 C1 3.63 1 7.26 1 11 C-8.9 11 -18.8 11 -29 11 C-20.25065404 6.62532702 -9.59016177 7.89409637 0 8 C0 5.36 0 2.72 0 0 Z " transform="translate(374,626)" style="fill: #33E8ED;"/><path d="M0 0 C1.42482835 3.84703653 0.57917819 6.77887101 -0.375 10.6875 C-0.65085937 11.84636719 -0.92671875 13.00523437 -1.2109375 14.19921875 C-2 17 -2 17 -3 18 C-3.49783321 20.73808268 -3.90032502 23.48494038 -4.3046875 26.23828125 C-5.04638279 29.18422826 -6.11092512 30.66997395 -8 33 C-8.71433121 35.64934822 -8.71433121 35.64934822 -9 38 C-9.66 38 -10.32 38 -11 38 C-8.85439656 28.96322315 -6.4840926 20.02170969 -3.8125 11.125 C-3.55065918 10.25133789 -3.28881836 9.37767578 -3.01904297 8.47753906 C-1.1354612 2.27092241 -1.1354612 2.27092241 0 0 Z " transform="translate(595,469)" style="fill: #39CFCC;"/><path d="M0 0 C0.33 0 0.66 0 1 0 C1.07746688 4.72547961 1.01406047 9.31825096 0.5234375 14.01953125 C-0.17819144 21.4036951 -0.33964518 28.79851142 -0.51757812 36.2109375 C-0.55173828 37.273125 -0.58589844 38.3353125 -0.62109375 39.4296875 C-0.6461499 40.38085449 -0.67120605 41.33202148 -0.69702148 42.31201172 C-1.0195369 45.173329 -1.81481984 47.38780248 -3 50 C-3.33 50 -3.66 50 -4 50 C-3.50363569 33.22630954 -1.9470359 16.66428279 0 0 Z " transform="translate(352,544)" style="fill: #37BEBD;"/><path d="M0 0 C0.33 0 0.66 0 1 0 C1.86215498 5.5489762 2.71637594 11.09909627 3.56347656 16.65039062 C3.85234859 18.53613691 4.14333256 20.421561 4.43652344 22.30664062 C4.85916694 25.02650969 5.27403685 27.74747211 5.6875 30.46875 C5.81874268 31.30241089 5.94998535 32.13607178 6.08520508 32.99499512 C6.84529395 38.05843085 7.1233865 42.87946029 7 48 C5.20789224 44.88739179 4.68521547 42.38065683 4.4375 38.8125 C4.45010753 35.59996202 4.45010753 35.59996202 3 33 C2.79160985 31.35892758 2.63248275 29.71143707 2.5 28.0625 C2.24785057 24.39442535 2.24785057 24.39442535 1 21 C0.84824451 19.40737934 0.75099675 17.80935144 0.68359375 16.2109375 C0.64169922 15.26992188 0.59980469 14.32890625 0.55664062 13.359375 C0.51732422 12.37453125 0.47800781 11.3896875 0.4375 10.375 C0.39431641 9.38242187 0.35113281 8.38984375 0.30664062 7.3671875 C0.20038931 4.91160162 0.09835036 2.45591297 0 0 Z " transform="translate(524,496)" style="fill: #3BC2BB;"/><path d="M0 0 C1.52118317 3.936645 0.43044454 6.71005598 -0.80078125 10.63671875 C-0.99721725 11.27559525 -1.19365326 11.91447174 -1.39604187 12.57270813 C-2.02535406 14.61406647 -2.66816403 16.65083909 -3.3125 18.6875 C-7.08816402 30.72797805 -7.08816402 30.72797805 -10 43 C-10.33 43 -10.66 43 -11 43 C-11.08075665 40.70890403 -11.13907731 38.41700733 -11.1875 36.125 C-11.22230469 34.84882813 -11.25710938 33.57265625 -11.29296875 32.2578125 C-11.19628906 31.18273437 -11.09960938 30.10765625 -11 29 C-10.01 28.34 -9.02 27.68 -8 27 C-7.30750972 24.85233955 -7.30750972 24.85233955 -7 22.375 C-6.29556936 18.26680785 -5.21537964 14.68291304 -3.6640625 10.828125 C-2.73440213 8.26882468 -2.33671198 5.69369587 -2 3 C-1.34 3 -0.68 3 0 3 C0 2.01 0 1.02 0 0 Z " transform="translate(591,477)" style="fill: #0E3A43;"/><path d="M0 0 C0.33 0 0.66 0 1 0 C1.20228701 5.46174935 0.62252307 10.14046926 -0.5625 15.46484375 C-1.00747309 18.04330387 -1.06707165 20.3883977 -1 23 C-1 27 -1 27 -3 29 C-3.22543745 31.02893704 -3.44932457 33.0581544 -3.6484375 35.08984375 C-4.09352834 37.50817063 -4.99396458 38.6044971 -7 40 C-6.17334012 32.52248564 -4.83528971 25.15132013 -3.5 17.75 C-3.27441406 16.48414063 -3.04882812 15.21828125 -2.81640625 13.9140625 C-0.98638105 3.71356702 -0.98638105 3.71356702 0 0 Z " transform="translate(475,462)" style="fill: #3AD6D2;"/><path d="M0 0 C2.71840156 4.07760235 3.66270495 8.38064976 5 13.06640625 C5.78683592 16.08093137 5.78683592 16.08093137 8 18 C10.43176397 18.24501495 12.75864884 18.37324921 15.1953125 18.4140625 C16.25647781 18.44311172 16.25647781 18.44311172 17.33908081 18.4727478 C19.60093085 18.53257652 21.8628317 18.57894101 24.125 18.625 C25.6575744 18.66317686 27.19012728 18.70222842 28.72265625 18.7421875 C32.48159624 18.83828039 36.24063668 18.92229849 40 19 C40.495 17.515 40.495 17.515 41 16 C41 17.32 41 18.64 41 20 C36.21281308 20.02471738 31.4256633 20.04286825 26.63842773 20.05493164 C25.00984042 20.05996065 23.38125763 20.06678465 21.75268555 20.07543945 C19.41193528 20.08756769 17.0712447 20.09324263 14.73046875 20.09765625 C14.00224411 20.10281754 13.27401947 20.10797882 12.52372742 20.11329651 C9.40397712 20.11364279 6.98366812 19.99455604 4 19 C3.11048375 16.53374926 2.42195285 14.22253927 1.8125 11.6875 C1.63525391 11.01009766 1.45800781 10.33269531 1.27539062 9.63476562 C0.42809479 6.28811066 0 3.47547765 0 0 Z " transform="translate(428,616)" style="fill: #39DCE0;"/><path d="M0 0 C0.33 0 0.66 0 1 0 C1.83058514 11.02008501 2.12308347 21.94983981 2 33 C1.67 33 1.34 33 1 33 C0.34 28.05 -0.32 23.1 -1 18 C-1.66 18 -2.32 18 -3 18 C-2.41509121 11.85845775 -1.45933748 5.99320151 0 0 Z " transform="translate(609,472)" style="fill: #064445;"/><path d="M0 0 C0.33 0 0.66 0 1 0 C1.73993788 5.47972508 2.47006902 10.96063427 3.19116211 16.44287109 C3.4378207 18.30748677 3.68715048 20.17175113 3.93920898 22.03564453 C4.30115162 24.7155906 4.65345373 27.39665528 5.00390625 30.078125 C5.11843643 30.91055725 5.23296661 31.7429895 5.35096741 32.60064697 C5.4511467 33.38115417 5.55132599 34.16166138 5.65454102 34.96582031 C5.74558609 35.64976868 5.83663116 36.33371704 5.93043518 37.03839111 C6.00722977 39.20386703 5.61712292 40.93200726 5 43 C2.61221098 39.41831647 2.59854519 36.58932358 2.4375 32.4375 C2.3941982 27.57014351 2.3941982 27.57014351 1 23 C0.84733388 21.26131256 0.75067404 19.51752499 0.68359375 17.7734375 C0.64169922 16.7421875 0.59980469 15.7109375 0.55664062 14.6484375 C0.51732422 13.56820313 0.47800781 12.48796875 0.4375 11.375 C0.39431641 10.28703125 0.35113281 9.1990625 0.30664062 8.078125 C0.2003547 5.3855483 0.09831943 2.69287747 0 0 Z " transform="translate(518,451)" style="fill: #39CBC1;"/><path d="M0 0 C5.07422059 0.4832591 7.85519172 2.12401058 12 5 C14.30204881 6.10684367 16.62611429 7.05044571 19 8 C19 8.66 19 9.32 19 10 C19.99 10 20.98 10 22 10 C22 10.66 22 11.32 22 12 C15.58048005 11.00438001 10.03236992 9.27820004 5 5 C5 4.34 5 3.68 5 3 C4.01 3 3.02 3 2 3 C2 2.34 2 1.68 2 1 C1.34 0.67 0.68 0.34 0 0 Z " transform="translate(198,599)" style="fill: #DEECF0;"/><path d="M0 0 C2.34590491 3.51885736 3.00456001 6.87721859 3.875 10.9375 C5.28709732 17.27009445 7.03136242 23.33340831 9.18359375 29.4609375 C10.2115041 32.65778787 10.69663725 35.6630098 11 39 C9 38 9 38 8.25390625 36.03125 C8.02574219 35.1959375 7.79757812 34.360625 7.5625 33.5 C6.59448361 30.07283086 5.58633172 26.68356682 4.4375 23.3125 C4.19128906 22.57257812 3.94507813 21.83265625 3.69140625 21.0703125 C3.09155744 19.27415504 2.4839722 17.4805848 1.875 15.6875 C0.64462538 10.50234981 0.33127686 5.30914751 0 0 Z " transform="translate(402,529)" style="fill: #0B4553;"/><path d="M0 0 C0.66 0.33 1.32 0.66 2 1 C-0.86758323 13.36745394 -3.89394801 25.69035954 -7 38 C-7.33 38 -7.66 38 -8 38 C-7.43016517 25.10994316 -7.43016517 25.10994316 -4.7578125 18.9609375 C-3.56207134 15.86680317 -3.07101714 12.66342931 -2.47265625 9.41015625 C-1.84351991 6.20208086 -0.95141392 3.12607429 0 0 Z " transform="translate(582,575)" style="fill: #42C9C4;"/><path d="M0 0 C1.09962438 3.30640483 0.88420346 5.25337499 -0.125 8.5625 C-1.74170639 14.08186043 -3.23452394 19.62327389 -4.6875 25.1875 C-5.12876003 26.86852797 -5.57015521 28.54952048 -6.01171875 30.23046875 C-6.33785156 31.47441406 -6.66398438 32.71835937 -7 34 C-7.66 32.68 -8.32 31.36 -9 30 C-8.67 29.67 -8.34 29.34 -8 29 C-7.5549482 26.91168 -7.11036005 24.82326023 -6.66796875 22.734375 C-5.68188974 18.69779426 -4.30092804 14.8144582 -2.953125 10.88671875 C-1.76565668 7.29024709 -0.8512878 3.6889138 0 0 Z " transform="translate(594,532)" style="fill: #40C9C3;"/><path d="M0 0 C0.33 1.32 0.66 2.64 1 4 C1.66 4 2.32 4 3 4 C3 4.99 3 5.98 3 7 C2.34 7 1.68 7 1 7 C0.87625 7.639375 0.7525 8.27875 0.625 8.9375 C0.41875 9.948125 0.2125 10.95875 0 12 C-0.12246094 12.72445312 -0.24492188 13.44890625 -0.37109375 14.1953125 C-0.51675781 14.97648438 -0.66242187 15.75765625 -0.8125 16.5625 C-0.94269531 17.30628906 -1.07289063 18.05007813 -1.20703125 18.81640625 C-2.21929514 21.60387183 -3.81329377 23.04394027 -6 25 C-5.37571782 22.33316351 -4.75059174 19.66652933 -4.125 17 C-3.95097656 16.25621094 -3.77695312 15.51242187 -3.59765625 14.74609375 C-2.44097218 9.81947641 -1.23786742 4.90686184 0 0 Z " transform="translate(579,593)" style="fill: #102F3A;"/><path d="M0 0 C0.90575383 3.34721486 1.10389209 6.27306478 1.0625 9.75 C1.05347656 10.73484375 1.04445313 11.7196875 1.03515625 12.734375 C1.02355469 13.48203125 1.01195312 14.2296875 1 15 C0.34 15 -0.32 15 -1 15 C-2.485 21.435 -2.485 21.435 -4 28 C-4.66 28 -5.32 28 -6 28 C-5.42100187 21.40474547 -4.20265263 15.3108382 -2.4375 8.9375 C-2.20353516 8.07189453 -1.96957031 7.20628906 -1.72851562 6.31445312 C-1.1582666 4.20802305 -0.57998166 2.10377111 0 0 Z " transform="translate(599,517)" style="fill: #0E3F45;"/><path d="M0 0 C0.66 0.33 1.32 0.66 2 1 C0.76470691 10.73484704 -1.9172788 19.72830419 -5 29 C-5.33 29 -5.66 29 -6 29 C-5.24875622 21.73797678 -5.24875622 21.73797678 -4.0625 18.21875 C-2.85743377 14.56810819 -2.09077532 10.89377619 -1.375 7.125 C-1.2409375 6.43664062 -1.106875 5.74828125 -0.96875 5.0390625 C-0.64227777 3.36006245 -0.32063447 1.68012464 0 0 Z " transform="translate(573,607)" style="fill: #41DDD8;"/><path d="M0 0 C-1.28806784 2.57613567 -2.20549499 2.71374817 -4.875 3.6875 C-10.38160427 5.46096353 -15.36210722 4.87466374 -21 4 C-14.83204838 -0.11196775 -7.23434167 -0.26793858 0 0 Z " transform="translate(224,423)" style="fill: #CADAD9;"/><path d="M0 0 C-0.66 0 -1.32 0 -2 0 C-2.2475 0.59296875 -2.495 1.1859375 -2.75 1.796875 C-4.18968863 4.3343262 -5.65151493 5.54044102 -8 7.25 C-8.70125 7.77078125 -9.4025 8.2915625 -10.125 8.828125 C-12 10 -12 10 -14 10 C-12.56179187 4.96627156 -10.09754485 3.01044111 -6 0 C-3 -1 -3 -1 0 0 Z " transform="translate(282,597)" style="fill: #E5F1F9;"/><path d="M0 0 C2.09338281 4.04908761 3.60305394 8.21087929 5.125 12.5 C5.40214844 13.25925781 5.67929687 14.01851562 5.96484375 14.80078125 C6.22652344 15.53683594 6.48820312 16.27289062 6.7578125 17.03125 C6.9964502 17.69705078 7.23508789 18.36285156 7.48095703 19.04882812 C8 21 8 21 8 25 C7.34 25 6.68 25 6 25 C6 23.02 6 21.04 6 19 C5.34 19 4.68 19 4 19 C2.19769832 15.17010894 1.80377759 12.21878192 2 8 C1.34 8 0.68 8 0 8 C0 5.36 0 2.72 0 0 Z " transform="translate(427,548)" style="fill: #3ACAC3;"/><path d="M0 0 C0.33 0 0.66 0 1 0 C2.95744681 17.34042553 2.95744681 17.34042553 -2 25 C-3.02451301 21.76607394 -2.95041862 19.35474612 -2.44140625 16.015625 C-2.30283203 15.08105469 -2.16425781 14.14648438 -2.02148438 13.18359375 C-1.87001953 12.21550781 -1.71855469 11.24742187 -1.5625 10.25 C-1.34110352 8.77466797 -1.34110352 8.77466797 -1.11523438 7.26953125 C-0.75041022 4.84521588 -0.37843254 2.42222202 0 0 Z " transform="translate(492,488)" style="fill: #0A5C5E;"/><path d="M0 0 C0.33 0 0.66 0 1 0 C1.24692314 6.57089912 0.97136251 12.68300626 -1 19 C-1.33 19.33 -1.66 19.66 -2 20 C-2.23075082 21.34747084 -2.41153063 22.70377565 -2.5625 24.0625 C-2.706875 25.361875 -2.85125 26.66125 -3 28 C-3.66 28 -4.32 28 -5 28 C-4.37922374 21.52432348 -3.33183542 15.28837757 -1.9375 8.9375 C-1.75123047 8.07189453 -1.56496094 7.20628906 -1.37304688 6.31445312 C-0.91933733 4.20877549 -0.46023996 2.10425993 0 0 Z " transform="translate(454,576)" style="fill: #3CD2D0;"/><path d="M0 0 C0.99 0 1.98 0 3 0 C1.84993207 3.45020378 1.34459382 3.67948383 -1.67578125 5.41015625 C-2.42150391 5.84263672 -3.16722656 6.27511719 -3.93554688 6.72070312 C-4.71994141 7.16349609 -5.50433594 7.60628906 -6.3125 8.0625 C-7.08529297 8.50916016 -7.85808594 8.95582031 -8.65429688 9.41601562 C-12.06074651 11.37552965 -15.47221767 13.26645694 -19 15 C-19 14.34 -19 13.68 -19 13 C-18.34 13 -17.68 13 -17 13 C-17 12.34 -17 11.68 -17 11 C-16.030625 10.54625 -15.06125 10.0925 -14.0625 9.625 C-10.92920418 8.34213779 -10.92920418 8.34213779 -10 6 C-6.9375 5.375 -6.9375 5.375 -4 5 C-4 4.34 -4 3.68 -4 3 C-2.68 2.67 -1.36 2.34 0 2 C0 1.34 0 0.68 0 0 Z " transform="translate(158,573)" style="fill: #1F3626;"/><path d="M0 0 C1.32 0 2.64 0 4 0 C4 0.66 4 1.32 4 2 C1.8751956 3.1461973 -0.24983431 4.29197292 -2.375 5.4375 C-2.97828125 5.76298828 -3.5815625 6.08847656 -4.203125 6.42382812 C-8.7734375 8.88671875 -8.7734375 8.88671875 -11 10 C-11 9.01 -11 8.02 -11 7 C-9.68 6.67 -8.36 6.34 -7 6 C-7.33 5.01 -7.66 4.02 -8 3 C-5 1 -5 1 -2.3125 1.375 C-1.549375 1.58125 -0.78625 1.7875 0 2 C0 1.34 0 0.68 0 0 Z " transform="translate(193,427)" style="fill: #20352D;"/><path d="M0 0 C1.0692621 3.75814179 0.84248613 6.55492046 0.25 10.4375 C0.09015625 11.54996094 -0.0696875 12.66242187 -0.234375 13.80859375 C-1.01875702 17.07818614 -2.17842954 19.20343751 -4 22 C-4.71143088 23.98451771 -5.38991336 25.98202112 -6 28 C-7.47816027 25.04367945 -6.43812449 23.26760781 -5.56640625 20.1171875 C-5.24736328 18.95058594 -4.92832031 17.78398438 -4.59960938 16.58203125 C-4.25736328 15.35871094 -3.91511719 14.13539063 -3.5625 12.875 C-3.22412109 11.64394531 -2.88574219 10.41289063 -2.53710938 9.14453125 C-1.69776945 6.09453546 -0.85180406 3.04653393 0 0 Z " transform="translate(568,558)" style="fill: #3BCFC8;"/><path d="M0 0 C0.33 0 0.66 0 1 0 C1.50910422 3.49873754 2.005606 6.99915601 2.5 10.5 C2.64308594 11.48226562 2.78617187 12.46453125 2.93359375 13.4765625 C3.71357983 19.04789162 4.160716 24.37493985 4 30 C3.67 30 3.34 30 3 30 C0.80614772 23.71274041 0.57230658 17.68460222 0.375 11.0625 C0.33632813 9.99708984 0.29765625 8.93167969 0.2578125 7.83398438 C0.16413854 5.22282266 0.07841665 2.61165696 0 0 Z " transform="translate(496,522)" style="fill: #135058;"/><path d="M0 0 C0.33 0 0.66 0 1 0 C1.06058594 0.75925781 1.12117187 1.51851563 1.18359375 2.30078125 C1.26738281 3.29464844 1.35117187 4.28851563 1.4375 5.3125 C1.51871094 6.29863281 1.59992187 7.28476562 1.68359375 8.30078125 C1.91812559 11.09375599 1.91812559 11.09375599 3 14 C3.07029121 16.57265818 3.09370832 19.11641431 3.0625 21.6875 C3.05798828 22.38939453 3.05347656 23.09128906 3.04882812 23.81445312 C3.03706927 25.54300538 3.01913454 27.27151365 3 29 C2.67 29 2.34 29 2 29 C-0.10084738 19.2648233 -0.21105492 9.89613084 0 0 Z " transform="translate(524,479)" style="fill: #0C3139;"/><path d="M0 0 C0.33 0 0.66 0 1 0 C1.1953125 6.0546875 1.1953125 6.0546875 1 8 C0.34 8.66 -0.32 9.32 -1 10 C-1.58566982 12.81121516 -1.95426394 15.62369506 -2.33984375 18.46875 C-3 21 -3 21 -6 23 C-5.38334864 17.60607261 -4.12077204 12.71604717 -2.4375 7.5625 C-2.20353516 6.83095703 -1.96957031 6.09941406 -1.72851562 5.34570312 C-1.15732778 3.56219821 -0.57936877 1.78086417 0 0 Z " transform="translate(578,525)" style="fill: #37CAC5;"/><path d="M0 0 C2.60895459 2.60895459 3.10973264 4.98266538 4.1875 8.5 C4.55230469 9.6653125 4.91710937 10.830625 5.29296875 12.03125 C6 15 6 15 5 17 C3.68 15.02 2.36 13.04 1 11 C0.34 11.66 -0.32 12.32 -1 13 C-1.07654536 8.48382401 -1.10228696 4.40914783 0 0 Z " transform="translate(385,474)" style="fill: #0A4E56;"/><path d="M0 0 C0.66 0.66 1.32 1.32 2 2 C-5.59 1.34 -13.18 0.68 -21 0 C-21 -0.33 -21 -0.66 -21 -1 C-5.93244687 -3.62044402 -5.93244687 -3.62044402 0 0 Z " transform="translate(267,423)" style="fill: #334943;"/><path d="M0 0 C8.58 0 17.16 0 26 0 C26 2.97 26 5.94 26 9 C25.67 9 25.34 9 25 9 C25 6.36 25 3.72 25 1 C17.41 1.33 9.82 1.66 2 2 C1.67 2.66 1.34 3.32 1 4 C0.34 4 -0.32 4 -1 4 C-0.67 2.68 -0.34 1.36 0 0 Z " transform="translate(606,432)" style="fill: #40E8E7;"/><path d="M0 0 C0.33 0.66 0.66 1.32 1 2 C0.34 2 -0.32 2 -1 2 C-1 2.66 -1 3.32 -1 4 C-2.32 4 -3.64 4 -5 4 C-5.33 4.99 -5.66 5.98 -6 7 C-7.31647119 7.69937532 -8.65022151 8.36729133 -10 9 C-10.33 9.66 -10.66 10.32 -11 11 C-12.65 10.67 -14.3 10.34 -16 10 C-11.22486164 5.71884147 -5.63843769 2.96240159 0 0 Z " transform="translate(164,573)" style="fill: #CDD9D5;"/><path d="M0 0 C0.33 0 0.66 0 1 0 C1.02689216 1.47906892 1.04634621 2.95827483 1.0625 4.4375 C1.07410156 5.26121094 1.08570313 6.08492188 1.09765625 6.93359375 C1 9 1 9 0 10 C-0.24350096 12.80927959 -0.38391001 15.61734162 -0.5234375 18.43359375 C-0.68070312 19.28050781 -0.83796875 20.12742187 -1 21 C-2.485 21.99 -2.485 21.99 -4 23 C-3.32545897 15.1753241 -1.73123042 7.65443386 0 0 Z " transform="translate(480,438)" style="fill: #3ED4D2;"/><path d="M0 0 C4.12751449 0.60698743 7.3321148 2.03810791 11 4 C11 4.66 11 5.32 11 6 C11.99 6.33 12.98 6.66 14 7 C12.68 7 11.36 7 10 7 C10 6.34 10 5.68 10 5 C8.906875 5.020625 7.81375 5.04125 6.6875 5.0625 C3 5 3 5 0 4 C0 2.68 0 1.36 0 0 Z " transform="translate(263,515)" style="fill: #D6E5E8;"/><path d="M0 0 C0.33 0 0.66 0 1 0 C1.50449402 2.58252893 2.00374301 5.16588703 2.5 7.75 C2.71462891 8.84441406 2.71462891 8.84441406 2.93359375 9.9609375 C3.58888879 13.39343532 4 16.49169491 4 20 C3.01 20 2.02 20 1 20 C0.67 13.4 0.34 6.8 0 0 Z " transform="translate(540,608)" style="fill: #35CAC1;"/><path d="M0 0 C1 3 1 3 0.25 5.0625 C-1 7 -1 7 -4 9 C-5.32 9 -6.64 9 -8 9 C-6.4169423 4.7257442 -3.49431596 2.73468206 0 0 Z " transform="translate(184,435)" style="fill: #D5E6E6;"/><path d="M0 0 C2.64719527 3.97079291 3.49821198 7.97815047 4.6875 12.5625 C4.92533203 13.43841797 5.16316406 14.31433594 5.40820312 15.21679688 C5.62798828 16.05404297 5.84777344 16.89128906 6.07421875 17.75390625 C6.27619873 18.52033447 6.47817871 19.2867627 6.6862793 20.07641602 C7 22 7 22 6 24 C2.07962513 16.29246688 0 8.68092552 0 0 Z " transform="translate(437,579)" style="fill: #3BC4BA;"/><path d="M0 0 C0.66 0 1.32 0 2 0 C2.042721 1.66611905 2.04063832 3.33382885 2 5 C1.67 5.33 1.34 5.66 1 6 C0.896875 7.0725 0.79375 8.145 0.6875 9.25 C-0.05903089 13.32198667 -1.20771663 15.02756932 -4 18 C-3.31195504 11.80759538 -1.71951285 5.98044406 0 0 Z " transform="translate(603,437)" style="fill: #3BD6D1;"/><path d="M0 0 C1.78139294 3.23606752 2.77180919 6.42657245 3.6875 10 C3.95949219 11.03125 4.23148437 12.0625 4.51171875 13.125 C4.98122716 15.88946552 4.93214283 17.39750728 4 20 C1.76419703 15.23676758 0.58694567 11.28251099 0 6 C-0.20625 5.05125 -0.4125 4.1025 -0.625 3.125 C-0.74875 2.42375 -0.8725 1.7225 -1 1 C-0.67 0.67 -0.34 0.34 0 0 Z " transform="translate(392,432)" style="fill: #3BCCC6;"/><path d="M0 0 C0.33 0 0.66 0 1 0 C1.07404988 4.66514243 1.06513227 9.28507046 0.6875 13.9375 C0.62949219 14.66839844 0.57148438 15.39929688 0.51171875 16.15234375 C0 18 0 18 -3 20 C-2.45136137 13.2142064 -1.45732062 6.64990964 0 0 Z " transform="translate(465,514)" style="fill: #3ACECC;"/><path d="M0 0 C0.33 0 0.66 0 1 0 C0.97679687 0.62648438 0.95359375 1.25296875 0.9296875 1.8984375 C0.91164063 2.71570313 0.89359375 3.53296875 0.875 4.375 C0.84019531 5.59316406 0.84019531 5.59316406 0.8046875 6.8359375 C0.78629949 9.21342243 0.78629949 9.21342243 3 11 C1 13 1 13 -3 13 C-2.01 8.71 -1.02 4.42 0 0 Z " transform="translate(572,620)" style="fill: #133B46;"/><path d="M0 0 C1.3357457 3.77371512 0.72408671 6.85831347 0.0625 10.75 C-0.13214844 11.92046875 -0.32679688 13.0909375 -0.52734375 14.296875 C-0.68332031 15.18890625 -0.83929688 16.0809375 -1 17 C-1.66 17 -2.32 17 -3 17 C-3.34548714 10.66606918 -2.29342747 5.89738492 0 0 Z " transform="translate(472,615)" style="fill: #41DBD7;"/><path d="M0 0 C0.33 0 0.66 0 1 0 C1.15639125 5.06316683 0.62766071 9.50398438 -0.5 14.4375 C-0.7784375 15.67371094 -1.056875 16.90992188 -1.34375 18.18359375 C-1.5603125 19.11300781 -1.776875 20.04242187 -2 21 C-2.33 21 -2.66 21 -3 21 C-2.88588196 18.24915453 -2.75914051 15.49988053 -2.625 12.75 C-2.5940625 11.97269531 -2.563125 11.19539062 -2.53125 10.39453125 C-2.16618114 3.27568856 -2.16618114 3.27568856 0 0 Z " transform="translate(459,540)" style="fill: #0D3F48;"/><path d="M0 0 C1.98 0 3.96 0 6 0 C5.21625 0.639375 4.4325 1.27875 3.625 1.9375 C0.16954724 5.32443103 -0.32290199 9.36137332 -1 14 C-1.33 14 -1.66 14 -2 14 C-2 10.7 -2 7.4 -2 4 C-1.34 4 -0.68 4 0 4 C0 2.68 0 1.36 0 0 Z " transform="translate(483,433)" style="fill: #2EF2EE;"/><path d="M0 0 C0.33 0 0.66 0 1 0 C0.63495936 5.66442374 -0.0554321 10.00703705 -3 15 C-3.66 15 -4.32 15 -5 15 C-5.33 12.03 -5.66 9.06 -6 6 C-5.01 7.32 -4.02 8.64 -3 10 C-2.01 6.7 -1.02 3.4 0 0 Z " transform="translate(549,614)" style="fill: #043A36;"/><path d="M0 0 C0.33 0 0.66 0 1 0 C1.05441656 1.89551022 1.09298035 3.7914792 1.125 5.6875 C1.14820313 6.74324219 1.17140625 7.79898438 1.1953125 8.88671875 C0.99858729 12.02251859 0.33057654 14.17645373 -1 17 C-1.33 17 -1.66 17 -2 17 C-2.21824777 10.9981863 -1.5056904 5.80766296 0 0 Z " transform="translate(350,577)" style="fill: #3AD5D3;"/><path d="M0 0 C0.33 0 0.66 0 1 0 C2.20443195 7.05453001 3.28100502 13.83437211 3 21 C2.67 21 2.34 21 2 21 C2 19.02 2 17.04 2 15 C1.34 15 0.68 15 0 15 C0 10.05 0 5.1 0 0 Z " transform="translate(537,587)" style="fill: #35C6BE;"/><path d="M0 0 C0.33 0 0.66 0 1 0 C0.67 5.94 0.34 11.88 0 18 C-0.66 18 -1.32 18 -2 18 C-2.33 18.66 -2.66 19.32 -3 20 C-2.22602467 13.29221378 -1.14231412 6.65425699 0 0 Z " transform="translate(461,535)" style="fill: #3BCAC8;"/><path d="M0 0 C0.33 0 0.66 0 1 0 C1.23268915 6.28260706 0.40454548 11.88019467 -1 18 C-1.66 18 -2.32 18 -3 18 C-2.32418477 11.91766294 -1.26361972 5.98685848 0 0 Z " transform="translate(475,462)" style="fill: #39C8C4;"/><path d="M0 0 C2.85793316 2.85793316 2.40799941 5.14665584 2.625 9.125 C2.69976563 10.40632813 2.77453125 11.68765625 2.8515625 13.0078125 C2.92503906 14.48894531 2.92503906 14.48894531 3 16 C1.51171875 14.91796875 1.51171875 14.91796875 0 13 C-0.29296875 9.86328125 -0.29296875 9.86328125 -0.1875 6.3125 C-0.16042969 5.13300781 -0.13335938 3.95351563 -0.10546875 2.73828125 C-0.07066406 1.83464844 -0.03585937 0.93101562 0 0 Z " transform="translate(521,478)" style="fill: #3AD3CB;"/><path d="M0 0 C1.26338576 2.52677153 0.85376414 3.41713614 0.22265625 6.1328125 C0.03896484 6.93847656 -0.14472656 7.74414062 -0.33398438 8.57421875 C-0.63272461 9.83685547 -0.63272461 9.83685547 -0.9375 11.125 C-1.13279297 11.97449219 -1.32808594 12.82398438 -1.52929688 13.69921875 C-2.01339259 15.80090258 -2.50590903 17.90064351 -3 20 C-3.33 20 -3.66 20 -4 20 C-3.91224337 17.79095369 -3.80405633 15.58271407 -3.6875 13.375 C-3.62949219 12.14523437 -3.57148437 10.91546875 -3.51171875 9.6484375 C-2.98003547 5.8576575 -1.89352204 3.29970329 0 0 Z " transform="translate(600,510)" style="fill: #41D2CA;"/><path d="M0 0 C4.455 0.99 4.455 0.99 9 2 C9.33 3.32 9.66 4.64 10 6 C8.5164999 5.57742724 7.03823576 5.13643678 5.5625 4.6875 C4.73878906 4.44386719 3.91507813 4.20023437 3.06640625 3.94921875 C2.04353516 3.47935547 2.04353516 3.47935547 1 3 C0.67 2.01 0.34 1.02 0 0 Z " transform="translate(227,503)" style="fill: #CFDCDC;"/><path d="M0 0 C1.98 0 3.96 0 6 0 C6 0.66 6 1.32 6 2 C7.65 2.33 9.3 2.66 11 3 C11.33 3.99 11.66 4.98 12 6 C10.55903414 5.57405412 9.12231288 5.13373367 7.6875 4.6875 C6.88699219 4.44386719 6.08648437 4.20023438 5.26171875 3.94921875 C2.90035427 2.95817977 1.66120007 1.91925057 0 0 Z " transform="translate(205,601)" style="fill: #2A4534;"/><path d="M0 0 C0.33 0 0.66 0 1 0 C1.55353075 10.55808656 1.55353075 10.55808656 -2 15 C-3.31534494 11.34142468 -2.65468309 8.91973519 -1.5625 5.25 C-1.27503906 4.26515625 -0.98757813 3.2803125 -0.69140625 2.265625 C-0.46324219 1.51796875 -0.23507812 0.7703125 0 0 Z " transform="translate(558,592)" style="fill: #3CD4D0;"/><path d="M0 0 C0.66 0.33 1.32 0.66 2 1 C1.5520266 3.31452922 1.09133539 5.62660039 0.625 7.9375 C0.36976563 9.22527344 0.11453125 10.51304687 -0.1484375 11.83984375 C-0.42945313 12.88269531 -0.71046875 13.92554688 -1 15 C-1.99 15.495 -1.99 15.495 -3 16 C-3.25 9.375 -3.25 9.375 -1 6 C-0.60986284 4.0103005 -0.26797351 2.00980131 0 0 Z " transform="translate(582,575)" style="fill: #40D3CE;"/><path d="M0 0 C1.84187025 2.76280538 2.72248277 4.80707826 3.6875 7.9375 C3.95949219 8.79214844 4.23148437 9.64679687 4.51171875 10.52734375 C5.02075548 13.10510574 4.84888744 14.54449337 4 17 C3.79503906 16.44570313 3.59007812 15.89140625 3.37890625 15.3203125 C3.10949219 14.59585938 2.84007812 13.87140625 2.5625 13.125 C2.29566406 12.40570312 2.02882813 11.68640625 1.75390625 10.9453125 C1.02083146 8.96351155 1.02083146 8.96351155 0 7 C-0.04022391 4.6670134 -0.04320247 2.33293334 0 0 Z " transform="translate(397,512)" style="fill: #145361;"/><path d="M0 0 C1.72863281 0.29197266 1.72863281 0.29197266 3.4921875 0.58984375 C4.79542969 0.82380859 4.79542969 0.82380859 6.125 1.0625 C6.125 1.3925 6.125 1.7225 6.125 2.0625 C4.08340905 2.0897616 2.04171037 2.10901345 0 2.125 C-1.13695312 2.13660156 -2.27390625 2.14820313 -3.4453125 2.16015625 C-6.6879156 2.067827 -9.69432612 1.67639906 -12.875 1.0625 C-12.875 0.7325 -12.875 0.4025 -12.875 0.0625 C-8.27112021 -0.93803923 -4.63049487 -0.80324911 0 0 Z " transform="translate(238.875,608.9375)" style="fill: #465754;"/><path d="M0 0 C0.84214142 3.36856566 1.1138982 5.17893306 0.8125 8.5 C0.72935547 9.62921875 0.72935547 9.62921875 0.64453125 10.78125 C0 13 0 13 -4 17 C-2.68 11.39 -1.36 5.78 0 0 Z " transform="translate(583,508)" style="fill: #3CD5D1;"/><path d="M0 0 C3.3 0 6.6 0 10 0 C10 0.66 10 1.32 10 2 C11.65 2 13.3 2 15 2 C12 4 12 4 9.08203125 3.5390625 C8.00308594 3.23742187 6.92414063 2.93578125 5.8125 2.625 C4.72582031 2.32851563 3.63914063 2.03203125 2.51953125 1.7265625 C1.68808594 1.48679687 0.85664063 1.24703125 0 1 C0 0.67 0 0.34 0 0 Z " transform="translate(240,507)" style="fill: #2B4336;"/><path d="M0 0 C2.60691842 2.60691842 2.70416963 4.37607794 3 8 C2.01 9.485 2.01 9.485 1 11 C0.34 11 -0.32 11 -1 11 C-0.67 7.37 -0.34 3.74 0 0 Z " transform="translate(471,626)" style="fill: #123D45;"/><path d="M0 0 C0.928125 0.20625 1.85625 0.4125 2.8125 0.625 C2.8125 1.285 2.8125 1.945 2.8125 2.625 C4.1325 2.955 5.4525 3.285 6.8125 3.625 C3.38306481 4.81271723 1.43465325 4.42726223 -1.9375 3.1875 C-2.73671875 2.90003906 -3.5359375 2.61257813 -4.359375 2.31640625 C-4.96265625 2.08824219 -5.5659375 1.86007812 -6.1875 1.625 C-3.1875 -0.375 -3.1875 -0.375 0 0 Z " transform="translate(259.1875,510.375)" style="fill: #30473D;"/><path d="M0 0 C2.11044382 3.16566573 2.75552077 5.51197415 3.625 9.1875 C4.01558594 10.81751953 4.01558594 10.81751953 4.4140625 12.48046875 C4.60742188 13.31191406 4.80078125 14.14335937 5 15 C4.01 15 3.02 15 2 15 C1.66223316 13.2508503 1.32996329 11.50063855 1 9.75 C0.814375 8.77546875 0.62875 7.8009375 0.4375 6.796875 C0 4 0 4 0 0 Z " transform="translate(403,470)" style="fill: #39C7BD;"/><path d="M0 0 C-4.95 2.475 -4.95 2.475 -10 5 C-9.67 3.68 -9.34 2.36 -9 1 C-5.31975221 -1.08878929 -4.24507101 -1.06126775 0 0 Z " transform="translate(295,628)" style="fill: #CCE3EF;"/><path d="M0 0 C3.63 0.33 7.26 0.66 11 1 C9 3 9 3 7.0546875 3.1953125 C5.03645833 3.13020833 3.01822917 3.06510417 1 3 C0.67 2.01 0.34 1.02 0 0 Z " transform="translate(221,609)" style="fill: #D9E2EA;"/><path d="M0 0 C1.72357119 2.58535679 2.44735018 4.03811614 3.1875 6.9375 C3.36667969 7.60652344 3.54585938 8.27554688 3.73046875 8.96484375 C4.03268678 11.24680888 3.68756692 12.82026659 3 15 C0.73045369 11.59568053 0.63450051 9.83475798 0.375 5.8125 C0.30023438 4.72582031 0.22546875 3.63914062 0.1484375 2.51953125 C0.09945313 1.68808594 0.05046875 0.85664062 0 0 Z " transform="translate(402,529)" style="fill: #104E5B;"/><path d="M0 0 C1.84187025 2.76280538 2.72248277 4.80707826 3.6875 7.9375 C3.95949219 8.79214844 4.23148437 9.64679688 4.51171875 10.52734375 C5.02075548 13.10510574 4.84888744 14.54449337 4 17 C0.61504892 11.55464391 0.32626495 6.32278971 0 0 Z " transform="translate(408,486)" style="fill: #3BC2B9;"/><path d="M0 0 C5.75 1.625 5.75 1.625 8 5 C4.37673261 6.2077558 3.35853631 5.54311128 0 4 C0 2.68 0 1.36 0 0 Z " transform="translate(292,433)" style="fill: #DAEAEB;"/><path d="M0 0 C0.33 0 0.66 0 1 0 C1.10867302 1.58179615 1.18589827 3.16577153 1.25 4.75 C1.29640625 5.63171875 1.3428125 6.5134375 1.390625 7.421875 C1 10 1 10 -3 14 C-2.01 9.38 -1.02 4.76 0 0 Z " transform="translate(576,604)" style="fill: #0F3D46;"/><path d="M0 0 C2.64 0.99 5.28 1.98 8 3 C8 3.66 8 4.32 8 5 C6.02 5 4.04 5 2 5 C1.34 3.35 0.68 1.7 0 0 Z " transform="translate(218,499)" style="fill: #D9E4E9;"/><path d="M0 0 C0.33 0 0.66 0 1 0 C0.39174965 4.34464536 -0.26167392 8.67551867 -1 13 C-1.66 13 -2.32 13 -3 13 C-2.88490339 11.58249437 -2.75746342 10.16598831 -2.625 8.75 C-2.55539062 7.96109375 -2.48578125 7.1721875 -2.4140625 6.359375 C-1.98492887 3.914123 -1.21399362 2.15163097 0 0 Z " transform="translate(600,452)" style="fill: #3FE1DD;"/><path d="M0 0 C0 0.66 0 1.32 0 2 C-3.87684087 3.19287411 -6.91621923 4 -11 4 C-11 3.34 -11 2.68 -11 2 C-7.17679443 0.57741188 -4.08718695 -0.24042276 0 0 Z " transform="translate(210,423)" style="fill: #182E23;"/><path d="M0 0 C0.33 0 0.66 0 1 0 C1 2.31 1 4.62 1 7 C1.66 7 2.32 7 3 7 C3 9.64 3 12.28 3 15 C1.07047026 11.14094051 -0.12483821 8.73867465 -0.0625 4.375 C-0.05347656 3.55773437 -0.04445313 2.74046875 -0.03515625 1.8984375 C-0.02355469 1.27195312 -0.01195312 0.64546875 0 0 Z " transform="translate(616,589)" style="fill: #36DBD6;"/><path d="M0 0 C2.40034102 3.60051153 4.32187705 6.96144535 3.625 11.375 C3.41875 11.91125 3.2125 12.4475 3 13 C0.89172945 9.83759418 0.66182535 8.49342531 0.375 4.8125 C0.30023438 3.91144531 0.22546875 3.01039063 0.1484375 2.08203125 C0.09945313 1.39496094 0.05046875 0.70789063 0 0 Z " transform="translate(420,525)" style="fill: #3ACAC0;"/><path d="M0 0 C-0.33 3.63 -0.66 7.26 -1 11 C-3 9 -3 9 -3.01171875 7.08984375 C-1.94373866 0 -1.94373866 0 0 0 Z " transform="translate(475,619)" style="fill: #0F242D;"/><path d="M0 0 C0.33 0 0.66 0 1 0 C3.14285714 7.42857143 3.14285714 7.42857143 4 11 C3.01 11.495 3.01 11.495 2 12 C0.00214565 7.8794254 -0.17835515 4.54805635 0 0 Z " transform="translate(543,613)" style="fill: #10262D;"/><path d="M0 0 C5.53846154 0.61538462 5.53846154 0.61538462 7.875 2.5625 C8.431875 3.2740625 8.431875 3.2740625 9 4 C7.68 4.33 6.36 4.66 5 5 C5 4.34 5 3.68 5 3 C4.01 3 3.02 3 2 3 C2 2.34 2 1.68 2 1 C1.34 0.67 0.68 0.34 0 0 Z " transform="translate(198,599)" style="fill: #D6E3E7;"/><path d="M0 0 C0.33 0 0.66 0 1 0 C1.08131463 1.43655854 1.13933559 2.8744483 1.1875 4.3125 C1.23970703 5.51326172 1.23970703 5.51326172 1.29296875 6.73828125 C0.93801608 9.47851584 0.10633718 10.29171079 -2 12 C-1 3.42857143 -1 3.42857143 0 0 Z " transform="translate(602,504)" style="fill: #0E4449;"/><path d="M0 0 C0 0.33 0 0.66 0 1 C-4.3164922 1.76173392 -7.74433453 2.16063604 -12 1 C-12 0.67 -12 0.34 -12 0 C-7.74433453 -1.16063604 -4.3164922 -0.76173392 0 0 Z " transform="translate(269,641)" style="fill: #3A4850;"/><path d="M0 0 C1.15837573 3.47512718 0.77265943 5.13670286 0.0625 8.6875 C-0.13214844 9.68136719 -0.32679688 10.67523437 -0.52734375 11.69921875 C-0.68332031 12.45847656 -0.83929687 13.21773437 -1 14 C-1.66 12.68 -2.32 11.36 -3 10 C-2.67 9.67 -2.34 9.34 -2 9 C-1.60851239 7.48834346 -1.26027543 5.96530368 -0.9375 4.4375 C-0.76089844 3.61121094 -0.58429687 2.78492188 -0.40234375 1.93359375 C-0.26957031 1.29550781 -0.13679687 0.65742187 0 0 Z " transform="translate(588,552)" style="fill: #3DDCD3;"/><path d="M0 0 C0.33 0 0.66 0 1 0 C1 2.64 1 5.28 1 8 C0.01 8.33 -0.98 8.66 -2 9 C-1.125 2.25 -1.125 2.25 0 0 Z " transform="translate(592,545)" style="fill: #114449;"/><path d="M0 0 C2 1 2 1 3 4 C3.12781786 6.67394964 3.04391871 9.32095857 3 12 C2.67 12 2.34 12 2 12 C0.70756464 7.8803623 -0.26252625 4.33168317 0 0 Z " transform="translate(497,540)" style="fill: #13414A;"/><path d="M0 0 C2.475 0.99 2.475 0.99 5 2 C5 2.99 5 3.98 5 5 C3.68 5 2.36 5 1 5 C0.67 3.35 0.34 1.7 0 0 Z " transform="translate(296,531)" style="fill: #D3E6EB;"/><path d="M0 0 C0.99 0.33 1.98 0.66 3 1 C3.66 4.3 4.32 7.6 5 11 C4.34 11 3.68 11 3 11 C1.515 5.555 1.515 5.555 0 0 Z " transform="translate(410,492)" style="fill: #0D4042;"/><path d="M0 0 C2.475 0.99 2.475 0.99 5 2 C5 3.32 5 4.64 5 6 C3.35 6 1.7 6 0 6 C0 5.34 0 4.68 0 4 C0.66 3.67 1.32 3.34 2 3 C1.34 2.01 0.68 1.02 0 0 Z " transform="translate(268,464)" style="fill: #1D222D;"/><path d="M0 0 C1.65 0 3.3 0 5 0 C3.02 2.97 3.02 2.97 1 6 C0.34 5.67 -0.32 5.34 -1 5 C-0.67 3.35 -0.34 1.7 0 0 Z " transform="translate(201,463)" style="fill: #CBE5EB;"/><path d="M0 0 C2.0625 0.4375 2.0625 0.4375 4 1 C3.67 1.99 3.34 2.98 3 4 C0.9375 4.6875 0.9375 4.6875 -1 5 C-1 1 -1 1 0 0 Z " transform="translate(167,571)" style="fill: #D6E8EA;"/><path d="M0 0 C0.66 0 1.32 0 2 0 C2.66 1.98 3.32 3.96 4 6 C2.68 6.33 1.36 6.66 0 7 C0 4.69 0 2.38 0 0 Z " transform="translate(596,465)" style="fill: #36EDE8;"/><path d="M0 0 C2.97 0 5.94 0 9 0 C9.33 0.99 9.66 1.98 10 3 C6.08393425 2.46599103 3.60661066 1.80330533 0 0 Z " transform="translate(259,425)" style="fill: #E4F0FC;"/><path d="M0 0 C1 2 1 2 0 5 C-1.98 5.33 -3.96 5.66 -6 6 C-4 4 -2 2 0 0 Z " transform="translate(276,597)" style="fill: #BFCBC0;"/><path d="M0 0 C0 0.66 0 1.32 0 2 C-2.64 2 -5.28 2 -8 2 C-6.14210462 -1.71579076 -3.44525918 -1.06921837 0 0 Z " transform="translate(177,569)" style="fill: #C4CECC;"/><path d="M0 0 C1.98 0.495 1.98 0.495 4 1 C4 1.66 4 2.32 4 3 C2.35 3.66 0.7 4.32 -1 5 C-0.67 3.35 -0.34 1.7 0 0 Z " transform="translate(325,461)" style="fill: #D2DDED;"/><path d="M0 0 C1.125 1.75 1.125 1.75 2 4 C1.03284133 6.65968633 -0.41948242 8.62922362 -2 11 C-1 3.57142857 -1 3.57142857 0 0 Z " transform="translate(601,444)" style="fill: #36C0BD;"/><path d="M0 0 C1.32 0.66 2.64 1.32 4 2 C4 4 4 4 3 7 C1.68 5.68 0.36 4.36 -1 3 C-0.34 3 0.32 3 1 3 C0.67 2.01 0.34 1.02 0 0 Z " transform="translate(308,438)" style="fill: #2F3C3A;"/></svg>